<svg xmlns="http://www.w3.org/2000/svg" viewBox="0 0 320 36"><title>Power distribution unit — front type illustration</title><rect x="2" y="1" width="316" height="34" rx="3" fill="#60727d" stroke="#74848c" stroke-width=".6"/><rect x="13" y="3" width="294" height="30" rx="2" fill="#384c58" stroke="#74848c" stroke-width=".6"/><circle cx="7" cy="9" r="1.7" fill="#182a35"/><circle cx="7" cy="27" r="1.7" fill="#182a35"/><circle cx="313" cy="9" r="1.7" fill="#182a35"/><circle cx="313" cy="27" r="1.7" fill="#182a35"/><rect x="48" y="8" width="21" height="21" rx="2" fill="#14212a" stroke="#74848c" stroke-width=".6"/><rect x="54" y="12" width="3" height="10" rx="0" fill="#65747c" stroke="#74848c" stroke-width=".6"/><rect x="61" y="12" width="3" height="10" rx="0" fill="#65747c" stroke="#74848c" stroke-width=".6"/><rect x="77" y="8" width="21" height="21" rx="2" fill="#14212a" stroke="#74848c" stroke-width=".6"/><rect x="83" y="12" width="3" height="10" rx="0" fill="#65747c" stroke="#74848c" stroke-width=".6"/><rect x="90" y="12" width="3" height="10" rx="0" fill="#65747c" stroke="#74848c" stroke-width=".6"/><rect x="106" y="8" width="21" height="21" rx="2" fill="#14212a" stroke="#74848c" stroke-width=".6"/><rect x="112" y="12" width="3" height="10" rx="0" fill="#65747c" stroke="#74848c" stroke-width=".6"/><rect x="119" y="12" width="3" height="10" rx="0" fill="#65747c" stroke="#74848c" stroke-width=".6"/><rect x="135" y="8" width="21" height="21" rx="2" fill="#14212a" stroke="#74848c" stroke-width=".6"/><rect x="141" y="12" width="3" height="10" rx="0" fill="#65747c" stroke="#74848c" stroke-width=".6"/><rect x="148" y="12" width="3" height="10" rx="0" fill="#65747c" stroke="#74848c" stroke-width=".6"/><rect x="164" y="8" width="21" height="21" rx="2" fill="#14212a" stroke="#74848c" stroke-width=".6"/><rect x="170" y="12" width="3" height="10" rx="0" fill="#65747c" stroke="#74848c" stroke-width=".6"/><rect x="177" y="12" width="3" height="10" rx="0" fill="#65747c" stroke="#74848c" stroke-width=".6"/><rect x="193" y="8" width="21" height="21" rx="2" fill="#14212a" stroke="#74848c" stroke-width=".6"/><rect x="199" y="12" width="3" height="10" rx="0" fill="#65747c" stroke="#74848c" stroke-width=".6"/><rect x="206" y="12" width="3" height="10" rx="0" fill="#65747c" stroke="#74848c" stroke-width=".6"/><rect x="222" y="8" width="21" height="21" rx="2" fill="#14212a" stroke="#74848c" stroke-width=".6"/><rect x="228" y="12" width="3" height="10" rx="0" fill="#65747c" stroke="#74848c" stroke-width=".6"/><rect x="235" y="12" width="3" height="10" rx="0" fill="#65747c" stroke="#74848c" stroke-width=".6"/><rect x="251" y="8" width="21" height="21" rx="2" fill="#14212a" stroke="#74848c" stroke-width=".6"/><rect x="257" y="12" width="3" height="10" rx="0" fill="#65747c" stroke="#74848c" stroke-width=".6"/><rect x="264" y="12" width="3" height="10" rx="0" fill="#65747c" stroke="#74848c" stroke-width=".6"/><circle cx="26" cy="12" r="2" fill="#68ce9a"/><circle cx="26" cy="20" r="2" fill="#dbab55"/></svg>
