<svg xmlns="http://www.w3.org/2000/svg" viewBox="0 0 320 36"><title>Storage array — rear type illustration</title><rect x="2" y="1" width="316" height="34" rx="3" fill="#60727d" stroke="#74848c" stroke-width=".6"/><rect x="13" y="3" width="294" height="30" rx="2" fill="#384c58" stroke="#74848c" stroke-width=".6"/><circle cx="7" cy="9" r="1.7" fill="#182a35"/><circle cx="7" cy="27" r="1.7" fill="#182a35"/><circle cx="313" cy="9" r="1.7" fill="#182a35"/><circle cx="313" cy="27" r="1.7" fill="#182a35"/><circle cx="72" cy="18" r="13" fill="#14232c" stroke="#71818b"/><path d="M72,7 v22 m-11,-11 h22 m-19,-8 l16,16 m0,-16 l-16,16" stroke="#52636c" stroke-width="2"/><circle cx="117" cy="18" r="13" fill="#14232c" stroke="#71818b"/><path d="M117,7 v22 m-11,-11 h22 m-19,-8 l16,16 m0,-16 l-16,16" stroke="#52636c" stroke-width="2"/><circle cx="162" cy="18" r="13" fill="#14232c" stroke="#71818b"/><path d="M162,7 v22 m-11,-11 h22 m-19,-8 l16,16 m0,-16 l-16,16" stroke="#52636c" stroke-width="2"/><circle cx="207" cy="18" r="13" fill="#14232c" stroke="#71818b"/><path d="M207,7 v22 m-11,-11 h22 m-19,-8 l16,16 m0,-16 l-16,16" stroke="#52636c" stroke-width="2"/><rect x="244" y="6" width="52" height="24" rx="1" fill="#273844" stroke="#74848c" stroke-width=".6"/><circle cx="26" cy="12" r="2" fill="#68ce9a"/><circle cx="26" cy="20" r="2" fill="#dbab55"/></svg>
